<svg width="24" height="24" viewBox="0 0 24 24" fill="none" xmlns="http://www.w3.org/2000/svg">
<path d="M20.6799 13.91V13.9C19.7999 12.97 18.5699 12.4 17.1999 12.4C14.5499 12.4 12.3999 14.55 12.3999 17.2C12.3999 18.43 12.8699 19.55 13.6299 20.4C14.5099 21.38 15.7799 22 17.1999 22C19.8499 22 21.9999 19.85 21.9999 17.2C21.9999 15.93 21.4999 14.77 20.6799 13.91ZM18.9899 18.01H17.9499V19.1C17.9499 19.51 17.6099 19.85 17.1999 19.85C16.7899 19.85 16.4499 19.51 16.4499 19.1V18.01H15.4099C14.9899 18.01 14.6599 17.68 14.6599 17.26C14.6599 16.85 14.9799 16.52 15.3999 16.51H16.4499V15.51C16.4499 15.49 16.4499 15.47 16.4599 15.45C16.4799 15.07 16.8099 14.76 17.1999 14.76C17.5999 14.76 17.9299 15.08 17.9499 15.48V16.51H18.9899C19.4099 16.51 19.7399 16.85 19.7399 17.26C19.7399 17.68 19.4099 18.01 18.9899 18.01Z" fill="#292D32"/>
<path d="M22 8.73001C22 9.92001 21.81 11.02 21.48 12.04C21.42 12.25 21.17 12.31 20.99 12.18C19.9 11.37 18.57 10.94 17.2 10.94C13.73 10.94 10.9 13.77 10.9 17.24C10.9 18.32 11.18 19.38 11.71 20.32C11.87 20.6 11.68 20.96 11.38 20.85C8.97 20.03 4.1 17.04 2.52 12.04C2.19 11.02 2 9.92001 2 8.73001C2 5.64001 4.49 3.14001 7.56 3.14001C9.37 3.14001 10.99 4.02001 12 5.37001C13.01 4.02001 14.63 3.14001 16.44 3.14001C19.51 3.14001 22 5.64001 22 8.73001Z" fill="#292D32"/>
</svg>
